# xmcd
#
# Track frame offsets:
#	150
#	23434
#	38623
#	57571
#	74927
#	91015
#	108811
#	125443
#	139622
#	156913
#	175965
#	193196
#	209702
#	227667
#	243963
#	262298
#	281734
#	300493
#
# Disc length: 4213 seconds
#
# Revision: 2
# Processed by: cddbd v1.5.2PL0 Copyright (c) Steve Scherf et al.
# Submitted via: audiograbber 1.83.01
#
DISCID=07107312
DTITLE=Various Artist - SFG358
DYEAR=2015
DGENRE=karaoke
TTITLE0=Adele - Hello
TTITLE1=Aurora - Half the world away
TTITLE2=Fleur East - Sax
TTITLE3=Jess Glynne - Take me home
TTITLE4=Years and Years - Eyes shut
TTITLE5=Robin Schulz f. Francesco - Sugar
TTITLE6=Demi Lovato - Confident
TTITLE7=Cee lo Green - Music to my soul
TTITLE8=Sigma and Rita Ora - Coming home
TTITLE9=Diplo and Sleepy Tom - Be right there
TTITLE10=Ariana Grande - Focus
TTITLE11=Elle King - Ex's and Oh's
TTITLE12=1975 - Love me
TTITLE13=Justin Bieber - Sorry
TTITLE14=One Direction - Perfect
TTITLE15=Ben Haenow f. Kelly Clarkson - Second hand heart
TTITLE16=Bring me the horizon - True friends
TTITLE17=Electric Light Orchestra (ELO) - When I was a boy
EXTD=
EXTT0=
EXTT1=
EXTT2=
EXTT3=
EXTT4=
EXTT5=
EXTT6=
EXTT7=
EXTT8=
EXTT9=
EXTT10=
EXTT11=
EXTT12=
EXTT13=
EXTT14=
EXTT15=
EXTT16=
EXTT17=
PLAYORDER=
